<?xml version="1.0" encoding="UTF-8" standalone="no"?>
<svg
   version="1.1"
   id="Layer_1"
   x="0px"
   y="0px"
   width="240"
   viewBox="0 0 240 220"
   enable-background="new 0 0 409 872"
   xml:space="preserve"
   sodipodi:docname="sede_litoral.svg"
   height="220"
   inkscape:version="1.4.2 (f4327f4, 2025-05-13)"
   xmlns:inkscape="http://www.inkscape.org/namespaces/inkscape"
   xmlns:sodipodi="http://sodipodi.sourceforge.net/DTD/sodipodi-0.dtd"
   xmlns="http://www.w3.org/2000/svg"
   xmlns:svg="http://www.w3.org/2000/svg"><defs
   id="defs32" /><sodipodi:namedview
   id="namedview32"
   pagecolor="#ffffff"
   bordercolor="#000000"
   borderopacity="0.25"
   inkscape:showpageshadow="2"
   inkscape:pageopacity="0.0"
   inkscape:pagecheckerboard="0"
   inkscape:deskcolor="#d1d1d1"
   inkscape:zoom="0.84288991"
   inkscape:cx="204.65306"
   inkscape:cy="436"
   inkscape:window-width="1920"
   inkscape:window-height="974"
   inkscape:window-x="-11"
   inkscape:window-y="-11"
   inkscape:window-maximized="1"
   inkscape:current-layer="Layer_1" />








<path
   fill="#f28a27"
   opacity="1"
   stroke="none"
   d="m 111.91198,33.456274 c 12.62839,4.6e-5 24.76181,4.6e-5 37.64972,4.6e-5 -1.1756,6.672394 -2.16178,12.925385 -3.45477,19.114273 -0.29648,1.419022 -1.37,3.308243 -2.5662,3.791107 -3.99148,1.611237 -4.76336,4.623017 -4.84805,8.385529 -0.18228,8.094789 -0.46426,16.189329 -0.87369,24.275449 -0.0899,1.77629 -0.48224,3.7739 -1.41907,5.22948 -3.94506,6.129712 -8.1231,12.110872 -12.29068,18.094302 -0.53216,0.76407 -1.57775,1.81081 -2.25958,1.72508 -4.01361,-0.50473 -4.52456,2.66693 -4.66073,5.00482 -0.39808,6.83554 -0.86033,13.78357 -0.019,20.52802 0.44809,3.5919 3.96439,6.69848 5.28833,10.31937 0.896,2.4505 0.38584,5.41519 0.55597,9.33239 -6.46548,-3.14111 -10.54998,-2.5321 -12.84671,3.11008 -0.35397,0.86951 -1.30125,1.49515 -1.96595,2.24087 -11.339409,12.72153 -11.339119,12.72181 -30.003221,11.36527 6.33854,-9.65909 12.553132,-18.74497 18.280902,-28.12802 1.43017,-2.3429 2.30285,-5.90703 1.64195,-8.44348 -1.04729,-4.01927 -3.17983,-7.94791 -5.6219,-11.36563 -3.47248,-4.85973 -3.11799,-9.27108 -1.03676,-14.58138 2.28975,-5.84236 3.65443,-12.09674 4.86111,-18.281082 0.32234,-1.65204 -1.49583,-3.6722 -2.16902,-5.5806 -0.83023,-2.35358 -2.38336,-4.88705 -2.08086,-7.13513 2.06188,-15.32294 4.46384,-30.602143 6.99298,-45.856187 0.19887,-1.199356 2.087739,-2.799926 3.378409,-2.998809 2.92856,-0.451249 5.97394,-0.14444 9.46678,-0.145768 z"
   id="path9" />









<path
   fill="#f28a27"
   opacity="1"
   stroke="none"
   d="m 132.93188,155.37055 c -6.25028,-5.32727 -13.62378,-9.44815 -14.1214,-18.6047 -0.16706,-3.0744 0.16626,-6.1745 0.23266,-9.26366 0.0446,-2.0741 -0.20147,-4.18303 0.10218,-6.21364 0.23166,-1.54948 0.78662,-4.00496 1.77276,-4.334 6.92703,-2.31128 9.26294,-8.6409 12.74622,-13.91717 3.45074,-5.227022 7.64969,-10.237222 6.4689,-16.869142 6.15817,-1.53267 11.85889,-3.25116 17.68002,-4.30316 4.46418,-0.80678 7.94437,1.44909 10.31867,5.26867 1.63998,2.63831 3.20898,5.32074 4.52511,7.51 -0.46112,2.73741 -1.02777,5.23886 -1.27539,7.771512 -0.38052,3.89266 -4.73758,7.14052 -1.86221,11.59503 0.22012,0.34101 -0.19638,1.48964 -0.64084,1.802 -4.81756,3.38564 -1.96878,7.92402 -2.07321,12.10085 -0.14749,5.89912 -0.86975,11.78387 -1.35574,17.7917 -7.13321,0.28754 -4.30719,7.37174 -6.14191,11.30863 -0.98572,2.1152 0.50079,5.36526 0.80832,8.11035 0.10071,0.89856 0.001,1.81955 -0.006,2.73028 -0.89822,-0.0871 -1.88916,0.0427 -2.68002,-0.29556 -6.34448,-2.71298 -12.69351,-5.4237 -18.94394,-8.34329 -1.90216,-0.88852 -3.50064,-2.42731 -5.55383,-3.8447 z"
   id="path19" />













</svg>
