<svg version="1.1" id="Layer_1" xmlns="http://www.w3.org/2000/svg" xmlns:xlink="http://www.w3.org/1999/xlink" x="0px" y="0px"
	 width="100%" viewBox="0 0 496 256" enable-background="new 0 0 496 256" xml:space="preserve">
<path fill="#000000" opacity="1.000000" stroke="none" 
	d="
M401.828308,162.167816 
	C390.469666,147.373550 379.354645,132.842468 368.239594,118.311378 
	C367.756531,118.402626 367.273438,118.493874 366.790375,118.585121 
	C368.481567,134.031723 363.786102,149.842941 370.324219,165.738373 
	C365.412079,166.615143 360.160553,166.279266 353.507538,165.790161 
	C360.642761,158.794205 358.518188,150.888718 358.676147,143.447449 
	C358.867004,134.455978 358.684814,125.456955 358.701019,116.461273 
	C358.710907,110.979515 359.396362,105.350739 354.194794,101.282379 
	C362.100250,97.874840 367.559265,99.293083 372.047424,105.208496 
	C382.805603,119.387840 393.626312,133.519760 404.740784,148.088943 
	C404.740784,134.366104 404.737854,121.151505 404.743134,107.936913 
	C404.744293,105.062088 402.139038,103.428726 400.918793,100.323807 
	C406.524170,100.323807 411.651642,100.323807 417.577576,100.323807 
	C411.026154,107.640877 413.571228,116.202415 413.377655,124.266884 
	C413.069977,137.086929 413.303131,149.919601 413.260193,162.746780 
	C413.254211,164.536316 413.690613,166.417389 412.371399,168.481949 
	C408.034332,168.147980 405.124390,165.156876 401.828308,162.167816 
z"/>
<path fill="#000000" opacity="1.000000" stroke="none" 
	d="
M439.374146,163.867371 
	C424.966736,155.528946 418.690399,141.420517 421.836060,125.033516 
	C424.461548,111.356232 435.917938,100.637314 450.275269,98.424950 
	C468.149261,95.670708 484.528473,107.497749 487.939148,125.621193 
	C491.394379,143.981400 480.212372,162.216843 463.087372,166.296524 
	C455.006561,168.221603 447.230621,167.617950 439.374146,163.867371 
M466.121979,110.278214 
	C453.726410,101.541908 438.673065,108.875374 434.608124,120.572151 
	C430.808624,131.505096 432.146973,141.965012 439.366882,151.201355 
	C447.747498,161.922623 463.331787,161.680771 471.696167,150.926788 
	C480.487823,139.623337 478.153809,120.833199 466.121979,110.278214 
z"/>
<path fill="#000000" opacity="1.000000" stroke="none" 
	d="
M132.423981,159.655975 
	C120.631477,149.837906 118.460815,137.316299 121.817825,123.658730 
	C125.217529,109.827431 135.507843,102.883560 148.677536,99.794998 
	C156.031036,98.070465 163.505615,98.336098 171.004868,99.464172 
	C174.248367,99.952072 176.036346,100.884140 175.441818,104.402161 
	C175.041046,106.773575 176.986740,109.257835 174.803314,112.070473 
	C169.607681,108.712433 163.967926,106.862976 157.597748,107.028152 
	C143.618820,107.390633 134.000427,115.878242 132.418915,129.749451 
	C130.950211,142.631195 140.323181,155.843475 152.764954,158.705261 
	C157.941528,159.895950 163.003845,159.554535 168.102280,158.510559 
	C170.323044,158.055832 171.774841,156.851410 171.621918,154.419601 
	C171.162781,147.118210 173.639801,139.398254 167.949081,132.561478 
	C172.523071,131.139954 176.637482,131.913589 180.682175,131.937836 
	C182.336227,131.947739 182.698273,133.211761 182.678421,134.769547 
	C182.563873,143.758179 182.500900,152.747940 182.508408,161.737228 
	C182.509827,163.426941 182.260696,164.736069 180.386948,165.106003 
	C163.947647,168.351669 147.675919,170.041840 132.423981,159.655975 
z"/>
<path fill="#000000" opacity="1.000000" stroke="none" 
	d="
M187.621277,165.886932 
	C197.196274,148.575119 202.212082,129.423965 209.850067,111.359726 
	C211.283081,107.970551 212.901917,104.623619 209.993484,100.854492 
	C214.640182,99.352051 218.774734,99.983070 222.836914,100.104553 
	C225.554703,100.185829 226.020721,102.695480 226.798996,104.669556 
	C232.837006,119.984856 238.895615,135.292313 244.846024,150.641693 
	C246.893188,155.922455 248.899857,161.170120 254.939560,165.652985 
	C247.261703,165.652985 241.212479,165.652985 234.540329,165.652985 
	C238.833511,160.293549 235.048386,155.923721 233.483841,151.485214 
	C229.615311,140.510406 231.516861,142.020508 220.430313,142.124130 
	C204.001816,142.277679 208.017548,139.237640 202.186066,155.398727 
	C200.452774,160.202240 200.621994,160.531311 203.247391,165.917892 
	C197.975296,166.517136 192.949570,166.276718 187.621277,165.886932 
M213.692932,123.081306 
	C212.649887,125.999443 211.606827,128.917572 210.336212,132.472397 
	C215.856491,133.238174 220.699966,132.896622 226.376221,132.711655 
	C223.712631,125.572273 221.883987,118.779617 218.221039,111.641312 
	C216.615448,115.699471 215.297470,119.030663 213.692932,123.081306 
z"/>
<path fill="#000000" opacity="1.000000" stroke="none" 
	d="
M330.917786,125.858612 
	C336.882172,126.208893 337.177216,126.856941 335.900452,136.189011 
	C332.887054,135.582260 330.060242,134.312378 326.898956,134.191650 
	C322.700195,134.031311 320.552734,135.112366 321.042267,139.711731 
	C321.305084,142.181122 321.062012,144.702026 321.089600,147.199203 
	C321.211426,158.226883 319.849365,155.965744 330.742218,157.559448 
	C336.163788,158.352692 341.337250,157.234863 346.032867,154.229156 
	C347.101593,153.545059 348.075134,152.431366 349.968597,153.032562 
	C349.921783,157.180573 348.027710,160.849670 346.483368,164.597961 
	C345.978241,165.824020 344.774963,166.137222 343.563507,166.130981 
	C331.584351,166.069351 319.605286,165.988663 307.626495,165.879730 
	C307.390320,165.877563 307.157898,165.468414 306.562439,164.910889 
	C311.017029,159.835953 309.652252,153.550018 309.709625,147.529541 
	C309.806396,137.373932 309.749603,127.216637 309.722443,117.060135 
	C309.707550,111.483086 310.592621,105.743340 306.241974,100.649986 
	C310.616608,99.316544 314.415527,99.962921 318.135803,99.891251 
	C324.293945,99.772614 330.467285,100.093651 336.612762,99.792084 
	C340.680908,99.592461 342.597748,100.815399 342.134369,105.057343 
	C341.921417,107.006691 342.573303,109.043655 341.131866,111.772575 
	C336.710602,108.557549 331.603638,108.106865 326.294952,108.230339 
	C322.523438,108.318054 320.749573,109.594727 320.937378,113.523262 
	C321.119354,117.329063 320.976868,121.150368 320.976868,125.060417 
	C324.177917,126.499123 327.365631,125.635513 330.917786,125.858612 
z"/>
<path fill="#000000" opacity="1.000000" stroke="none" 
	d="
M262.667542,138.999466 
	C262.667664,130.336182 262.575745,122.171303 262.704254,114.009895 
	C262.776672,109.410278 262.253845,105.054878 258.449921,100.295067 
	C264.991638,99.613335 270.559998,99.809624 277.209747,100.192261 
	C271.896759,106.925362 273.453613,114.037430 273.361481,120.873566 
	C273.220062,131.367477 273.407745,141.865723 273.278320,152.359940 
	C273.239807,155.484192 274.324219,156.675919 277.486969,157.111069 
	C286.295013,158.322815 294.759735,158.316360 302.490265,152.257095 
	C302.150482,157.119736 300.372192,161.092239 298.383179,164.982269 
	C297.884308,165.957932 296.809326,166.179428 295.784576,166.182999 
	C285.789032,166.217880 275.793427,166.232986 265.797821,166.252090 
	C263.827972,166.255844 261.858124,166.252625 258.785339,166.252625 
	C264.701721,157.375946 262.082825,148.268478 262.667542,138.999466 
z"/>
<path fill="#000000" opacity="1.000000" stroke="none" 
	d="
M76.977692,165.318054 
	C72.766777,166.932358 70.671402,164.926514 69.229118,161.660797 
	C67.077179,156.788269 63.960407,152.905548 58.949005,150.594009 
	C55.584442,149.042084 52.907082,149.113495 49.740002,151.407501 
	C45.693935,154.338181 42.437084,157.661743 40.599773,162.313507 
	C40.034664,163.744263 39.335674,165.045197 37.733715,165.550446 
	C35.681435,166.197739 33.665714,165.987137 32.125996,164.521683 
	C30.610613,163.079391 31.612894,161.438889 32.377007,159.942947 
	C32.978401,158.765564 33.591614,157.594223 34.903946,155.059982 
	C31.787695,156.762466 30.426994,158.426178 29.122616,160.144760 
	C27.916880,161.733398 26.877037,163.553162 24.869698,164.220367 
	C22.473793,165.016739 19.770565,165.813049 17.964188,163.400299 
	C16.078701,160.881866 18.227047,159.053299 19.858742,157.424042 
	C28.534313,148.761398 38.796139,145.063248 51.267471,144.729416 
	C57.364147,144.566254 63.256275,143.891373 69.270561,145.357697 
	C76.921829,147.223129 83.475868,150.992172 89.121529,156.367142 
	C91.033401,158.187332 94.273636,159.858963 91.839470,163.287170 
	C90.362732,165.366959 84.450600,164.659348 82.428650,162.023117 
	C79.854195,158.666519 76.702003,156.004044 73.473213,153.382919 
	C72.619812,152.690140 71.628014,152.167847 70.021851,151.128662 
	C73.252266,156.036911 80.767807,157.810730 76.977692,165.318054 
z"/>
<path fill="#000000" opacity="1.000000" stroke="none" 
	d="
M53.975830,114.562096 
	C49.080116,126.381844 45.000725,138.155655 33.987804,145.675400 
	C29.208485,148.938797 24.168783,151.240677 18.678404,152.706543 
	C16.194839,153.369644 13.314503,154.665527 11.569296,151.534454 
	C10.392232,149.422699 13.581408,144.813354 16.721281,143.996216 
	C18.473015,143.540329 20.365408,143.652496 22.150894,143.292709 
	C25.383141,142.641357 28.542000,141.723526 31.272947,139.607224 
	C28.275064,140.519363 25.322866,141.562805 22.128700,141.226746 
	C19.957716,140.998337 17.318340,141.107681 17.374788,138.108749 
	C17.424864,135.448471 19.031380,133.259735 21.872709,132.894882 
	C24.158314,132.601395 26.526890,133.035904 28.851202,132.948761 
	C43.797703,132.388260 46.919846,124.036629 41.335327,111.463478 
	C40.603607,109.816063 39.168274,108.492271 38.336483,106.875717 
	C36.930618,104.143486 38.194527,101.906250 40.392494,100.399178 
	C42.917034,98.668175 44.313190,100.602547 45.505959,102.564201 
	C48.825146,108.022995 48.889614,113.874168 47.752205,119.889885 
	C50.489361,112.815422 49.110073,105.892700 46.767891,99.043182 
	C45.884396,96.459488 45.085491,93.987106 46.664421,91.383522 
	C47.533051,89.951195 48.218689,88.222710 50.198734,88.289345 
	C52.392128,88.363144 53.307068,90.095871 53.751995,91.937866 
	C55.167690,97.798859 55.891354,103.725159 54.922596,109.748444 
	C54.684841,111.226654 54.369289,112.692360 53.975830,114.562096 
z"/>
<path fill="#000000" opacity="1.000000" stroke="none" 
	d="
M63.846008,122.776794 
	C63.880741,116.647774 62.984398,110.432335 65.451370,104.523491 
	C66.474464,102.073013 67.372246,99.377213 70.361610,98.700676 
	C72.108559,98.305313 73.022285,99.762840 73.766228,101.103981 
	C75.325348,103.914642 74.196304,106.199081 72.323761,108.350998 
	C71.780472,108.975334 71.307892,109.674591 70.885010,110.388161 
	C67.786026,115.617424 65.574890,121.507256 68.948891,126.878136 
	C71.856361,131.506393 77.540970,132.768890 83.053299,132.906799 
	C84.879128,132.952484 86.737251,132.592194 88.531708,132.813660 
	C91.729607,133.208374 93.132057,135.631073 93.041992,138.454285 
	C92.947205,141.425201 90.297379,141.248138 88.117012,141.296692 
	C85.253021,141.360489 82.564598,140.453568 79.727173,140.046371 
	C82.898422,141.733032 85.962181,143.499359 89.763290,143.849991 
	C92.855354,144.135223 96.144730,144.533417 97.784866,147.964569 
	C98.496429,149.453156 99.758484,150.883286 98.425148,152.532745 
	C97.144135,154.117493 95.425079,154.342056 93.458183,153.776779 
	C80.771225,150.130508 70.947670,143.237228 66.446869,130.217194 
	C66.175369,129.431793 65.826302,128.673218 65.299286,127.216438 
	C64.672165,125.279411 64.259087,124.028099 63.846008,122.776794 
z"/>
<path fill="#000000" opacity="1.000000" stroke="none" 
	d="
M63.707603,122.415421 
	C64.259087,124.028099 64.672165,125.279411 65.138641,126.933533 
	C64.998817,130.025421 63.875538,130.105316 62.844921,127.894791 
	C59.174942,120.023193 56.388351,111.837624 57.055065,103.010841 
	C57.376297,98.757942 57.835400,94.426743 59.371204,90.348740 
	C59.968872,88.761757 60.675278,87.140160 62.642879,87.051338 
	C64.380951,86.972870 65.163620,88.466942 65.959351,89.711159 
	C67.276131,91.770142 67.827446,93.948517 66.627647,96.285423 
	C62.412582,104.495361 62.820004,113.254555 63.707603,122.415421 
z"/>
</svg>